<?xml version="1.0" encoding="UTF-8"?>
<svg version="1.1" xmlns="http://www.w3.org/2000/svg" width="500" height="500">
<path d="M0 0 C6.95986594 2.68961852 12.33474813 12.26272165 16.6328125 18.19921875 C17.06609863 18.79371826 17.49938477 19.38821777 17.94580078 20.00073242 C19.96797846 22.85893265 21.64796344 25.30906304 22.1328125 28.82421875 C22.7928125 28.82421875 23.4528125 28.82421875 24.1328125 28.82421875 C41.9792806 52.30641361 50.73892203 87.03582707 47.234375 116.0234375 C43.62545627 141.54993582 32.01085794 163.83786784 16.1328125 183.82421875 C15.58109375 184.60796875 15.029375 185.39171875 14.4609375 186.19921875 C14.02265625 186.73546875 13.584375 187.27171875 13.1328125 187.82421875 C12.4728125 187.82421875 11.8128125 187.82421875 11.1328125 187.82421875 C10.895625 188.38625 10.6584375 188.94828125 10.4140625 189.52734375 C8.84333553 192.34315917 6.91809786 194.30377291 4.6328125 196.57421875 C3.44171875 197.77304687 3.44171875 197.77304687 2.2265625 198.99609375 C0.1328125 200.82421875 0.1328125 200.82421875 -1.8671875 200.82421875 C-1.8671875 201.48421875 -1.8671875 202.14421875 -1.8671875 202.82421875 C-3.99759363 204.65541053 -6.13461255 206.37567415 -8.3671875 208.07421875 C-9.32588745 208.81248901 -9.32588745 208.81248901 -10.30395508 209.56567383 C-11.57640968 210.5440013 -12.85087236 211.51972316 -14.12744141 212.49267578 C-15.58627897 213.60922084 -17.03120285 214.74391304 -18.47265625 215.8828125 C-19.15972656 216.42035156 -19.84679687 216.95789063 -20.5546875 217.51171875 C-21.13605469 217.96933594 -21.71742188 218.42695313 -22.31640625 218.8984375 C-23.8671875 219.82421875 -23.8671875 219.82421875 -26.8671875 219.82421875 C-25.51536882 215.25411092 -23.64130914 211.52129227 -21.1796875 207.44921875 C-16.70837332 199.86314858 -13.20722743 191.96013923 -9.8671875 183.82421875 C-9.54314941 183.05134521 -9.21911133 182.27847168 -8.88525391 181.48217773 C-6.43892917 175.54451329 -4.47048026 169.56928036 -2.7421875 163.38671875 C-2.35317261 162.00214478 -2.35317261 162.00214478 -1.95629883 160.58959961 C2.24711581 145.392639 3.3683976 130.5822443 3.1328125 114.82421875 C2.98585938 116.08492188 2.83890625 117.345625 2.6875 118.64453125 C-1.33897408 150.93117703 -12.31208608 182.00425702 -30.8671875 208.82421875 C-31.5375 209.81035156 -32.2078125 210.79648437 -32.8984375 211.8125 C-33.87296875 213.14861328 -33.87296875 213.14861328 -34.8671875 214.51171875 C-35.4240625 215.27871094 -35.9809375 216.04570312 -36.5546875 216.8359375 C-43.59345425 222.88785012 -52.94360432 222.33245708 -61.7421875 222.26171875 C-63.02053467 222.2563208 -64.29888184 222.25092285 -65.6159668 222.24536133 C-79.15581466 222.02982106 -91.29266748 219.73856084 -103.8671875 214.82421875 C-88.82524496 222.78568075 -75.16153079 225.99153853 -58.1796875 226.44921875 C-56.39401367 226.50722656 -56.39401367 226.50722656 -54.57226562 226.56640625 C-51.67071697 226.6596287 -48.76915784 226.74543223 -45.8671875 226.82421875 C-46.8671875 229.82421875 -46.8671875 229.82421875 -48.73828125 231.03515625 C-70.50244233 240.90687619 -94.2440936 245.03018609 -117.375 237.71484375 C-120.30745777 236.55986038 -123.07368163 235.28115866 -125.8671875 233.82421875 C-126.72441406 233.38207031 -127.58164063 232.93992187 -128.46484375 232.484375 C-147.77886707 221.70792613 -161.17221676 202.71949078 -169.8671875 182.82421875 C-170.5625 179.91015625 -170.5625 179.91015625 -170.8671875 177.82421875 C-167.37765566 178.38157453 -164.8663144 179.22319511 -161.8671875 181.07421875 C-147.47893612 189.3164952 -132.24067161 192.38991655 -115.8046875 192.26171875 C-115.12976257 192.2590097 -114.45483765 192.25630066 -113.75946045 192.25350952 C-102.10246549 192.18289335 -91.11831605 190.94817635 -79.8671875 187.82421875 C-78.67174316 187.49550781 -78.67174316 187.49550781 -77.45214844 187.16015625 C-73.70936895 186.11607829 -69.98375844 185.02912785 -66.2734375 183.875 C-63.80915047 183.11480136 -61.37688125 182.40682623 -58.8671875 181.82421875 C-59.07214844 180.84324219 -59.27710938 179.86226562 -59.48828125 178.8515625 C-61.37861007 169.50967188 -62.54355571 160.37135657 -62.8671875 150.82421875 C-62.9084375 149.66921875 -62.9496875 148.51421875 -62.9921875 147.32421875 C-63.40832259 123.60451856 -59.62894681 100.21106593 -51.8671875 77.82421875 C-51.65368652 77.18597168 -51.44018555 76.54772461 -51.22021484 75.89013672 C-44.80493701 56.80720049 -34.67084124 39.48559793 -22.7265625 23.3515625 C-21.10072422 21.14165206 -19.54098092 18.90069031 -17.9921875 16.63671875 C-17.2909375 15.70859375 -16.5896875 14.78046875 -15.8671875 13.82421875 C-15.2071875 13.82421875 -14.5471875 13.82421875 -13.8671875 13.82421875 C-13.4959375 12.98890625 -13.4959375 12.98890625 -13.1171875 12.13671875 C-11.63793932 9.40010962 -9.93251311 7.14771006 -7.8671875 4.82421875 C-7.2071875 4.82421875 -6.5471875 4.82421875 -5.8671875 4.82421875 C-5.5784375 4.18484375 -5.2896875 3.54546875 -4.9921875 2.88671875 C-3.62756359 0.38490824 -2.87174273 -0.27035235 0 0 Z M-4.8671875 86.82421875 C-6.28760571 89.66505516 -6.18171022 91.67899153 -5.8671875 94.82421875 C-3.91361687 97.50133406 -2.43609439 98.59665599 0.6328125 99.82421875 C3.23275655 100.0441913 3.23275655 100.0441913 5.4453125 98.38671875 C7.95565258 94.57472085 7.70730343 92.34833479 7.1328125 87.82421875 C5.51733049 85.69527251 5.51733049 85.69527251 3.1328125 84.82421875 C-0.62201395 84.82421875 -1.8353019 84.94235873 -4.8671875 86.82421875 Z " fill="#B7148C" transform="translate(283.8671875,94.17578125)"/>
<path d="M0 0 C-1 3 -1 3 -2.68310547 4.05566406 C-3.40385254 4.37245117 -4.12459961 4.68923828 -4.8671875 5.015625 C-5.66511719 5.3760791 -6.46304688 5.7365332 -7.28515625 6.10791016 C-8.56712891 6.67324463 -8.56712891 6.67324463 -9.875 7.25 C-17.33859447 10.65879993 -24.20513122 14.38202542 -31 19 C-33.05886645 20.31819248 -35.12134186 21.63076627 -37.1875 22.9375 C-38.10917969 23.52402344 -39.03085937 24.11054688 -39.98046875 24.71484375 C-40.64691406 25.13894531 -41.31335938 25.56304687 -42 26 C-40.2365625 25.4121875 -40.2365625 25.4121875 -38.4375 24.8125 C-37.60089844 24.53664063 -36.76429688 24.26078125 -35.90234375 23.9765625 C-33.90794965 23.30550123 -31.92118595 22.61146161 -29.94140625 21.8984375 C-21.73734192 19.01164982 -13.44953243 16.75023046 -5 14.6875 C-3.92556641 14.42090576 -2.85113281 14.15431152 -1.74414062 13.87963867 C3.63111957 12.59935402 8.47231481 11.6623715 14 12 C13.67 12.99 13.34 13.98 13 15 C10.49847232 15.93807288 8.06302961 16.70673356 5.5 17.4375 C-2.6129224 19.93998934 -10.17747874 23.23554955 -17.8125 26.9375 C-18.82441406 27.42726318 -19.83632813 27.91702637 -20.87890625 28.42163086 C-23.93339459 29.92142618 -26.96997872 31.45139203 -30 33 C-31.56391479 33.79833252 -31.56391479 33.79833252 -33.15942383 34.61279297 C-41.50368014 38.98242018 -49.27727013 43.97589156 -57.0625 49.25 C-58.26983472 50.06041388 -59.477516 50.8703117 -60.68554688 51.6796875 C-66.56049652 55.57785176 -66.56049652 55.57785176 -72.23999023 59.74902344 C-74 61 -74 61 -76 61 C-76 61.66 -76 62.32 -76 63 C-77.44140625 64.26953125 -77.44140625 64.26953125 -79.5625 65.8125 C-89.86811789 73.63832859 -99.44396712 82.26402703 -108.625 91.375 C-109.28765869 92.02847412 -109.95031738 92.68194824 -110.63305664 93.35522461 C-113.6673279 96.40892889 -116.3939123 99.42501234 -118.8359375 102.9765625 C-119.55007812 103.97429687 -120.26421875 104.97203125 -121 106 C-121.66 106 -122.32 106 -123 106 C-123.309375 106.99 -123.309375 106.99 -123.625 108 C-124.79692168 110.55692004 -125.86570888 112.25188263 -127.5625 114.4375 C-135.37440116 124.59297151 -141.5368058 135.44121613 -147 147 C-147.66 147 -148.32 147 -149 147 C-148.14446881 135.87809456 -143.73588749 125.97160479 -139 116 C-138.36972018 114.62823444 -137.74091873 113.25578904 -137.11328125 111.8828125 C-128.947979 94.11728489 -128.947979 94.11728489 -125 89 C-124.34 89 -123.68 89 -123 89 C-122.86078125 88.16662109 -122.86078125 88.16662109 -122.71875 87.31640625 C-121.15072694 82.26294061 -117.17815121 78.15183609 -114 74 C-113.38511719 73.17628906 -112.77023437 72.35257812 -112.13671875 71.50390625 C-106.92320875 64.80679221 -101.03728987 58.82897833 -95.0625 52.8125 C-94.20873779 51.94947266 -93.35497559 51.08644531 -92.4753418 50.19726562 C-91.67008057 49.39611328 -90.86481934 48.59496094 -90.03515625 47.76953125 C-89.3069165 47.04354736 -88.57867676 46.31756348 -87.82836914 45.56958008 C-86 44 -86 44 -84 44 C-84 43.34 -84 42.68 -84 42 C-81.89142762 40.2597372 -79.78224598 38.65109857 -77.5625 37.0625 C-76.55074707 36.33377686 -76.55074707 36.33377686 -75.51855469 35.59033203 C-73.35523065 34.04616625 -71.18063911 32.51960406 -69 31 C-67.97398682 30.28384521 -67.97398682 30.28384521 -66.92724609 29.55322266 C-56.77392329 22.54380981 -46.30386013 16.94877325 -35.04589844 11.92089844 C-33.31357987 11.14114836 -31.59632452 10.32806512 -29.8828125 9.5078125 C-21.07399785 5.29944704 -9.86245137 0 0 0 Z M-45 27 C-45.33 27.66 -45.66 28.32 -46 29 C-45.01 28.67 -44.02 28.34 -43 28 C-43.66 27.67 -44.32 27.34 -45 27 Z " fill="#A21D8D" transform="translate(371,258)"/>
<path d="M0 0 C-1 3 -1 3 -2.68310547 4.05566406 C-3.40385254 4.37245117 -4.12459961 4.68923828 -4.8671875 5.015625 C-5.66511719 5.3760791 -6.46304688 5.7365332 -7.28515625 6.10791016 C-8.13980469 6.4847998 -8.99445313 6.86168945 -9.875 7.25 C-17.33859447 10.65879993 -24.20513122 14.38202542 -31 19 C-33.05886645 20.31819248 -35.12134186 21.63076627 -37.1875 22.9375 C-38.10917969 23.52402344 -39.03085937 24.11054688 -39.98046875 24.71484375 C-40.64691406 25.13894531 -41.31335938 25.56304687 -42 26 C-40.824375 25.608125 -39.64875 25.21625 -38.4375 24.8125 C-37.18259766 24.39871094 -37.18259766 24.39871094 -35.90234375 23.9765625 C-33.90794965 23.30550123 -31.92118595 22.61146161 -29.94140625 21.8984375 C-21.73734192 19.01164982 -13.44953243 16.75023046 -5 14.6875 C-3.92556641 14.42090576 -2.85113281 14.15431152 -1.74414062 13.87963867 C3.63111957 12.59935402 8.47231481 11.6623715 14 12 C13.67 12.99 13.34 13.98 13 15 C10.49847232 15.93807288 8.06302961 16.70673356 5.5 17.4375 C-6.94002928 21.27471662 -18.40232654 27.1592187 -30 33 C-30.6899707 33.3417627 -31.37994141 33.68352539 -32.09082031 34.03564453 C-42.29607579 39.10431135 -51.61747741 45.57337597 -61 52 C-61.495 50.515 -61.495 50.515 -62 49 C-61.01 49 -60.02 49 -59 49 C-58.67 47.68 -58.34 46.36 -58 45 C-57.01 45 -56.02 45 -55 45 C-55 44.01 -55 43.02 -55 42 C-53.77217138 41.37237545 -52.54266164 40.74803935 -51.3125 40.125 C-50.58546875 39.75503906 -49.8584375 39.38507813 -49.109375 39.00390625 C-47 38 -47 38 -44.0625 37.0625 C-43.381875 36.711875 -42.70125 36.36125 -42 36 C-41.10613836 33.45224694 -41.10613836 33.45224694 -41 31 C-45.96551325 30.64393187 -45.96551325 30.64393187 -50.4375 32.5 C-50.953125 32.995 -51.46875 33.49 -52 34 C-52.66 33.67 -53.32 33.34 -54 33 C-53.505 32.505 -53.505 32.505 -53 32 C-53.66 31.67 -54.32 31.34 -55 31 C-55 31.66 -55 32.32 -55 33 C-57.3125 34.125 -57.3125 34.125 -60 35 C-60.99 34.34 -61.98 33.68 -63 33 C-61.68 31.35 -60.36 29.7 -59 28 C-59.66 27.34 -60.32 26.68 -61 26 C-53.12722258 19.97129657 -44.13559806 16.10441215 -35.17480469 12.00146484 C-33.39246886 11.18072601 -31.62045227 10.3376117 -29.8515625 9.48828125 C-21.04205801 5.29516875 -9.85692435 0 0 0 Z M-45 27 C-45.33 27.66 -45.66 28.32 -46 29 C-45.01 28.67 -44.02 28.34 -43 28 C-43.66 27.67 -44.32 27.34 -45 27 Z " fill="#BF208D" transform="translate(371,258)"/>
<path d="M0 0 C3.48953184 0.55735578 6.0008731 1.39897636 9 3.25 C13.82758333 6.04918697 18.85184842 7.96836017 24.08203125 9.88671875 C26.48579738 10.80381828 28.73045216 11.79653517 31 13 C31 13.66 31 14.32 31 15 C27.7 15 24.4 15 21 15 C21 14.34 21 13.68 21 13 C20.34 13 19.68 13 19 13 C19 13.66 19 14.32 19 15 C17.0625 15.5625 17.0625 15.5625 15 16 C14.67 15.67 14.34 15.34 14 15 C13.67 15.66 13.34 16.32 13 17 C13.66 17.33 14.32 17.66 15 18 C14.814375 18.61875 14.62875 19.2375 14.4375 19.875 C13.76313824 22.04160178 13.76313824 22.04160178 15 24 C16.89533342 24.46523063 16.89533342 24.46523063 19.0625 24.625 C20.361875 24.74875 21.66125 24.8725 23 25 C23 28 23 28 22.4375 30 C21.77947007 32.19116616 21.77947007 32.19116616 23 35 C23.66 35 24.32 35 25 35 C29 39.47058824 29 39.47058824 29 42 C29.66 42 30.32 42 31 42 C31 41.34 31 40.68 31 40 C34 41 34 41 35 43 C35.99 42.01 36.98 41.02 38 40 C38.82638376 42.89234315 39 44.88742431 39 48 C40.32 48.66 41.64 49.32 43 50 C43 50.66 43 51.32 43 52 C43.61746094 52.18175781 44.23492187 52.36351562 44.87109375 52.55078125 C47.58421822 53.3560465 50.29278546 54.17508698 53 55 C53.86882812 55.26296875 54.73765625 55.5259375 55.6328125 55.796875 C56.83550781 56.17585938 56.83550781 56.17585938 58.0625 56.5625 C58.79597656 56.79066406 59.52945313 57.01882813 60.28515625 57.25390625 C62 58 62 58 63 60 C64.155 59.79375 65.31 59.5875 66.5 59.375 C71.10626876 58.77453996 74.58291388 59.65909885 79 61 C79.495 60.01 79.495 60.01 80 59 C82.64 59.66 85.28 60.32 88 61 C88.33 60.01 88.66 59.02 89 58 C90.6396875 58.0309375 90.6396875 58.0309375 92.3125 58.0625 C95.94384191 58.18544452 95.94384191 58.18544452 99 57 C99.495 56.01 99.495 56.01 100 55 C97.69 55 95.38 55 93 55 C93.33 53.02 93.66 51.04 94 49 C104.23 49 114.46 49 125 49 C124 52 124 52 122.12890625 53.2109375 C100.36474517 63.08265744 76.6230939 67.20596734 53.4921875 59.890625 C50.55972973 58.73564163 47.79350587 57.45693991 45 56 C43.71416016 55.33677734 43.71416016 55.33677734 42.40234375 54.66015625 C23.08832043 43.88370738 9.69497074 24.89527203 1 5 C0.3046875 2.0859375 0.3046875 2.0859375 0 0 Z " fill="#7F3C90" transform="translate(113,272)"/>
<path d="M0 0 C1.32 0.66 2.64 1.32 4 2 C2.50067938 3.35491884 1.00049946 4.70888678 -0.5 6.0625 C-1.42296875 6.89523437 -2.3459375 7.72796875 -3.296875 8.5859375 C-5.4243346 10.4858942 -7.57481265 12.34331942 -9.75 14.1875 C-13.70790881 17.64358806 -17.45181879 21.3074079 -21.1875 25 C-21.78208008 25.58160889 -22.37666016 26.16321777 -22.98925781 26.76245117 C-25.89948701 29.66655958 -28.46996386 32.54411664 -30.80078125 35.9375 C-31.52652344 36.948125 -32.25226563 37.95875 -33 39 C-33.66 39 -34.32 39 -35 39 C-35.20625 39.66 -35.4125 40.32 -35.625 41 C-36.79692168 43.55692004 -37.86570888 45.25188263 -39.5625 47.4375 C-47.37440116 57.59297151 -53.5368058 68.44121613 -59 80 C-59.66 80 -60.32 80 -61 80 C-60.14446881 68.87809456 -55.73588749 58.97160479 -51 49 C-50.36972018 47.62823444 -49.74091873 46.25578904 -49.11328125 44.8828125 C-40.947979 27.11728489 -40.947979 27.11728489 -37 22 C-36.34 22 -35.68 22 -35 22 C-34.9071875 21.071875 -34.9071875 21.071875 -34.8125 20.125 C-34 18 -34 18 -31.4375 16.75 C-30.633125 16.5025 -29.82875 16.255 -29 16 C-29 17.32 -29 18.64 -29 20 C-28.505 20.99 -28.505 20.99 -28 22 C-27.505 20.515 -27.505 20.515 -27 19 C-26.0925 19.2475 -25.185 19.495 -24.25 19.75 C-23.1775 19.8325 -22.105 19.915 -21 20 C-18.72855926 18.14567913 -18.72855926 18.14567913 -17 16 C-16.34 16 -15.68 16 -15 16 C-14.34 14.35 -13.68 12.7 -13 11 C-12.01 11 -11.02 11 -10 11 C-10 10.01 -10 9.02 -10 8 C-9.360625 7.87625 -8.72125 7.7525 -8.0625 7.625 C-7.381875 7.41875 -6.70125 7.2125 -6 7 C-5.67 6.34 -5.34 5.68 -5 5 C-4.34 5 -3.68 5 -3 5 C-2.67 4.01 -2.34 3.02 -2 2 C-1.34 2 -0.68 2 0 2 C0 1.34 0 0.68 0 0 Z " fill="#87288F" transform="translate(283,325)"/>
<path d="M0 0 C0.33 0 0.66 0 1 0 C1.33 1.65 1.66 3.3 2 5 C2.99 4.01 3.98 3.02 5 2 C5 4.97 5 7.94 5 11 C3.68 11.33 2.36 11.66 1 12 C0.20851893 22.67692654 0.20851893 22.67692654 0 33.375 C0 37 0 37 -1 39 C-1.65253209 53.82840269 -1.65253209 53.82840269 2 68 C2.165 69.0725 2.33 70.145 2.5 71.25 C2.7475 72.61125 2.7475 72.61125 3 74 C3.66 74.33 4.32 74.66 5 75 C4.67 77.31 4.34 79.62 4 82 C3.01 82 2.02 82 1 82 C0.67 82.66 0.34 83.32 0 84 C-0.763125 84.12375 -1.52625 84.2475 -2.3125 84.375 C-5.59527974 85.13843715 -6.8213382 86.49857349 -9 89 C-9.66 88.67 -10.32 88.34 -11 88 C-11 87.67 -11 87.34 -11 87 C-13.31 87 -15.62 87 -18 87 C-18 86.34 -18 85.68 -18 85 C-15.75023648 84.35334337 -13.50018033 83.70770477 -11.25 83.0625 C-9.37054688 82.52302734 -9.37054688 82.52302734 -7.453125 81.97265625 C-4.97438281 81.27445851 -2.50339838 80.60056274 0 80 C-0.20496094 79.01902344 -0.40992188 78.03804688 -0.62109375 77.02734375 C-2.51142257 67.68545313 -3.67636821 58.54713782 -4 49 C-4.04125 47.845 -4.0825 46.69 -4.125 45.5 C-4.39110452 30.33204226 -2.95124249 14.88179724 0 0 Z " fill="#9A4190" transform="translate(225,196)"/>
<path d="M0 0 C0.33 0 0.66 0 1 0 C0.88637738 1.4800841 0.75877092 2.95910074 0.625 4.4375 C0.55539063 5.26121094 0.48578125 6.08492188 0.4140625 6.93359375 C0.27742188 7.61550781 0.14078125 8.29742187 0 9 C-0.99 9.495 -0.99 9.495 -2 10 C-2 10.99 -2 11.98 -2 13 C-1.01 12.67 -0.02 12.34 1 12 C1.33 11.34 1.66 10.68 2 10 C2.99 10.33 3.98 10.66 5 11 C3.60600257 13.92652876 2.01556368 16.58489348 0.20703125 19.2734375 C-6.21591948 28.92352933 -12.19065765 38.43693536 -17 49 C-17.66 49 -18.32 49 -19 49 C-18.14475893 37.88186609 -13.74208135 27.96578034 -9 18 C-8.31148108 16.52260984 -7.62406497 15.04470545 -6.9375 13.56640625 C-6.20868125 12.00244199 -5.47951426 10.43863996 -4.75 8.875 C-4.39647461 8.11550049 -4.04294922 7.35600098 -3.67871094 6.57348633 C-1.11524654 1.11524654 -1.11524654 1.11524654 0 0 Z " fill="#884F8F" transform="translate(241,356)"/>
<path d="M0 0 C0.66 0 1.32 0 2 0 C2 1.98 2 3.96 2 6 C0.68 6.33 -0.64 6.66 -2 7 C-1.938125 8.051875 -1.87625 9.10375 -1.8125 10.1875 C-2.007922 14.16108064 -2.5673814 15.91244563 -5 19 C-5.66 19 -6.32 19 -7 19 C-5.33075929 22.04134491 -5.33075929 22.04134491 -3 23 C-1.68 23 -0.36 23 1 23 C1.33 21.68 1.66 20.36 2 19 C3.32 18.67 4.64 18.34 6 18 C6 17.34 6 16.68 6 16 C6.99 16.33 7.98 16.66 9 17 C8.34 17.33 7.68 17.66 7 18 C7 18.66 7 19.32 7 20 C4.86959387 21.83119178 2.73257495 23.5514554 0.5 25.25 C-0.1391333 25.74218018 -0.7782666 26.23436035 -1.43676758 26.74145508 C-2.70922218 27.71978255 -3.98368486 28.69550441 -5.26025391 29.66845703 C-6.71909147 30.78500209 -8.16401535 31.91969429 -9.60546875 33.05859375 C-10.29253906 33.59613281 -10.97960937 34.13367188 -11.6875 34.6875 C-12.55955078 35.37392578 -12.55955078 35.37392578 -13.44921875 36.07421875 C-15 37 -15 37 -18 37 C-16.64818132 32.42989217 -14.77412164 28.69707352 -12.3125 24.625 C-8.3982104 18.01574412 -5.31785831 11.1800621 -2.34765625 4.10546875 C-1 1 -1 1 0 0 Z " fill="#A3358D" transform="translate(275,277)"/>
<path d="M0 0 C1.74991334 -0.02715383 3.49994945 -0.04646551 5.25 -0.0625 C6.71179688 -0.07990234 6.71179688 -0.07990234 8.203125 -0.09765625 C10.70034079 -0.01046296 12.60597118 0.37386939 15 1 C17.08033429 1.21827342 19.16427484 1.40380352 21.25 1.5625 C22.32765625 1.64628906 23.4053125 1.73007812 24.515625 1.81640625 C25.33546875 1.87699219 26.1553125 1.93757813 27 2 C27 2.66 27 3.32 27 4 C25.35 4 23.7 4 22 4 C22 4.99 22 5.98 22 7 C21.195625 6.7525 21.195625 6.7525 20.375 6.5 C17.54113991 5.90339788 14.8880194 5.9343632 12 6 C19.68032314 10.16017504 27.81103551 13.01858089 36 16 C33.60958721 17.5226602 32.53665795 18.11630642 29.7109375 17.50390625 C28.94007813 17.19324219 28.16921875 16.88257813 27.375 16.5625 C25.09788817 15.623753 25.09788817 15.623753 23 15 C22.01 15.495 22.01 15.495 21 16 C18.6599583 15.71758117 16.32495277 15.38749213 14 15 C14 13.35 14 11.7 14 10 C13.43410156 9.81824219 12.86820313 9.63648438 12.28515625 9.44921875 C11.55167969 9.19785156 10.81820312 8.94648438 10.0625 8.6875 C9.33160156 8.44386719 8.60070312 8.20023437 7.84765625 7.94921875 C6 7 6 7 5 4 C4.67 4.66 4.34 5.32 4 6 C3.34 6 2.68 6 2 6 C1.34 6.66 0.68 7.32 0 8 C-0.66 7.34 -1.32 6.68 -2 6 C-1.34 4.02 -0.68 2.04 0 0 Z " fill="#862D8B" transform="translate(170,304)"/>
<path d="M0 0 C10.23 0 20.46 0 31 0 C30 3 30 3 27.953125 4.38671875 C20.45666796 7.99411787 14.25668542 8.59070086 6 8 C6 7.34 6 6.68 6 6 C3.69 6 1.38 6 -1 6 C-0.67 4.02 -0.34 2.04 0 0 Z " fill="#8C278F" transform="translate(207,321)"/>
<path d="M0 0 C0.66 0.33 1.32 0.66 2 1 C-0.6598561 4.44216672 -3.90288286 4.99504674 -8 6 C-7.814375 7.19625 -7.62875 8.3925 -7.4375 9.625 C-7.47050986 12.32237728 -7.56032869 13.53768979 -9.44140625 15.515625 C-11.89839897 17.1380794 -14.43124592 18.55979177 -17 20 C-19.09574064 21.29557718 -21.17650951 22.61350158 -23.2578125 23.93212891 C-32.23665966 29.61832983 -32.23665966 29.61832983 -35 31 C-35 30.01 -35 29.02 -35 28 C-34.01 28 -33.02 28 -32 28 C-31.67 26.68 -31.34 25.36 -31 24 C-30.01 24 -29.02 24 -28 24 C-28 23.01 -28 22.02 -28 21 C-26.77217138 20.37237545 -25.54266164 19.74803935 -24.3125 19.125 C-23.58546875 18.75503906 -22.8584375 18.38507813 -22.109375 18.00390625 C-20 17 -20 17 -17.0625 16.0625 C-16.381875 15.711875 -15.70125 15.36125 -15 15 C-14.10613836 12.45224694 -14.10613836 12.45224694 -14 10 C-16.31 10 -18.62 10 -21 10 C-21 8.35 -21 6.7 -21 5 C-15.25 3.875 -15.25 3.875 -13 5 C-10.80713576 4.23826821 -8.64338973 3.39149838 -6.5 2.5 C-4.35661027 1.60850162 -2.19286424 0.76173179 0 0 Z M-18 6 C-18.33 6.66 -18.66 7.32 -19 8 C-18.01 7.67 -17.02 7.34 -16 7 C-16.66 6.67 -17.32 6.34 -18 6 Z " fill="#B32589" transform="translate(344,279)"/>
<path d="M0 0 C2.05078125 0.03255208 4.1015625 0.06510417 6.15234375 0.09765625 C4.83552279 4.04811913 3.48769734 6.55225483 0.15234375 9.09765625 C-7.20665765 11.5801045 -14.45478422 11.39471196 -22.16015625 11.34765625 C-23.41505859 11.35539062 -24.66996094 11.363125 -25.96289062 11.37109375 C-33.47562788 11.35543406 -40.51646634 10.76069326 -47.84765625 9.09765625 C-44.23175613 7.12596732 -41.73869967 6.88263357 -37.59765625 6.97265625 C-36.52 6.99070312 -35.44234375 7.00875 -34.33203125 7.02734375 C-33.10226563 7.06214844 -33.10226563 7.06214844 -31.84765625 7.09765625 C-31.84765625 7.75765625 -31.84765625 8.41765625 -31.84765625 9.09765625 C-30.94015625 8.93265625 -30.03265625 8.76765625 -29.09765625 8.59765625 C-25.69226776 8.09443083 -22.41194386 8.09418526 -18.97265625 8.16015625 C-13.60237665 8.22102844 -9.02728786 7.47889135 -3.84765625 6.09765625 C-3.70328125 5.29328125 -3.55890625 4.48890625 -3.41015625 3.66015625 C-2.63730567 0.13939248 -2.63730567 0.13939248 0 0 Z " fill="#9C4A94" transform="translate(243.84765625,304.90234375)"/>
<path d="M0 0 C0.99 0.33 1.98 0.66 3 1 C3.99 0.67 4.98 0.34 6 0 C7.39439664 -0.06665376 8.79169875 -0.08538199 10.1875 -0.0625 C12.0746875 -0.0315625 12.0746875 -0.0315625 14 0 C14 1.65 14 3.3 14 5 C8.25 8 8.25 8 6 8 C5.67 8.66 5.34 9.32 5 10 C2.4375 10.625 2.4375 10.625 0 11 C0 11.99 0 12.98 0 14 C-1.32 13.67 -2.64 13.34 -4 13 C-4 9.37 -4 5.74 -4 2 C-2.68 2 -1.36 2 0 2 C0 1.34 0 0.68 0 0 Z " fill="#BE128E" transform="translate(316,289)"/>
<path d="M0 0 C3.30919649 1.55726894 4.91421663 4.11369949 7.125 7 C6.135 7 5.145 7 4.125 7 C3.795 7.99 3.465 8.98 3.125 10 C1.805 9.34 0.485 8.68 -0.875 8 C-1.535 8.66 -2.195 9.32 -2.875 10 C-3.865 10.33 -4.855 10.66 -5.875 11 C-6.37 12.2375 -6.37 12.2375 -6.875 13.5 C-7.37 14.7375 -7.37 14.7375 -7.875 16 C-8.865 16.33 -9.855 16.66 -10.875 17 C-11.205 17.99 -11.535 18.98 -11.875 20 C-12.535 20.66 -13.195 21.32 -13.875 22 C-13.215 22.33 -12.555 22.66 -11.875 23 C-13.1875 24.5 -13.1875 24.5 -14.875 26 C-15.865 26 -16.855 26 -17.875 26 C-17.55425956 24.66358148 -17.21635927 23.33130115 -16.875 22 C-16.58625 20.80375 -16.2975 19.6075 -16 18.375 C-14.875 15 -14.875 15 -11.875 13 C-10.885 13 -9.895 13 -8.875 13 C-8.7203125 11.948125 -8.7203125 11.948125 -8.5625 10.875 C-7.45507805 6.24396276 -5.71863263 0 0 0 Z " fill="#D20982" transform="translate(283.875,94)"/>
<path d="M0 0 C-1 3 -1 3 -2.71484375 4.0715332 C-3.44832031 4.39468506 -4.18179687 4.71783691 -4.9375 5.05078125 C-6.15095093 5.60004272 -6.15095093 5.60004272 -7.38891602 6.16040039 C-8.25057373 6.54059326 -9.11223145 6.92078613 -10 7.3125 C-16.18906711 10.12581699 -22.02034184 12.93260792 -27.50390625 17.00390625 C-29 18 -29 18 -31 18 C-31 16.68 -31 15.36 -31 14 C-29.35 13.67 -27.7 13.34 -26 13 C-26 12.67 -26 12.34 -26 12 C-28.31 12 -30.62 12 -33 12 C-31.71098279 9.42196557 -30.79871279 9.35425743 -28.1328125 8.37890625 C-27.33415771 8.08443604 -26.53550293 7.78996582 -25.71264648 7.48657227 C-24.85872314 7.18162842 -24.0047998 6.87668457 -23.125 6.5625 C-22.26398682 6.25046631 -21.40297363 5.93843262 -20.51586914 5.61694336 C-4.81587064 0 -4.81587064 0 0 0 Z " fill="#B64291" transform="translate(371,258)"/>
<path d="M0 0 C0 3 0 3 -0.5625 5 C-1.22052993 7.19116616 -1.22052993 7.19116616 0 10 C0.66 10 1.32 10 2 10 C6 14.47058824 6 14.47058824 6 17 C6.66 17 7.32 17 8 17 C8 16.34 8 15.68 8 15 C11 16 11 16 12 18 C12.99 17.01 13.98 16.02 15 15 C15.33 16.32 15.66 17.64 16 19 C15.34 19 14.68 19 14 19 C14 19.99 14 20.98 14 22 C7.99355714 21.65720053 5.48041798 20.21704149 1.375 15.875 C0.90352539 15.37871094 0.43205078 14.88242187 -0.05371094 14.37109375 C-3.4168772 10.77687026 -6.51913485 7.25291168 -9 3 C-8.67 2.01 -8.34 1.02 -8 0 C-5.13822943 -1.43088528 -3.06624227 -0.59991697 0 0 Z " fill="#7E4090" transform="translate(136,297)"/>
<path d="M0 0 C1.32 0.66 2.64 1.32 4 2 C2.50067938 3.35491884 1.00049946 4.70888678 -0.5 6.0625 C-1.42296875 6.89523437 -2.3459375 7.72796875 -3.296875 8.5859375 C-5.4243346 10.4858942 -7.57481265 12.34331942 -9.75 14.1875 C-15.63259415 19.29702223 -21.028446 24.94557714 -26.5012207 30.48535156 C-27.99557812 31.9955313 -29.49645068 33.49897671 -31 35 C-31 33.35 -31 31.7 -31 30 C-30.360625 29.896875 -29.72125 29.79375 -29.0625 29.6875 C-28.0415625 29.3471875 -28.0415625 29.3471875 -27 29 C-26.67 28.01 -26.34 27.02 -26 26 C-25.34 26 -24.68 26 -24 26 C-24 25.01 -24 24.02 -24 23 C-23.34 23 -22.68 23 -22 23 C-21.731875 22.401875 -21.46375 21.80375 -21.1875 21.1875 C-20.00082594 19.00152146 -18.90400887 17.58667406 -17 16 C-16.34 16 -15.68 16 -15 16 C-14.34 14.35 -13.68 12.7 -13 11 C-12.01 11 -11.02 11 -10 11 C-10 10.01 -10 9.02 -10 8 C-9.360625 7.87625 -8.72125 7.7525 -8.0625 7.625 C-7.381875 7.41875 -6.70125 7.2125 -6 7 C-5.67 6.34 -5.34 5.68 -5 5 C-4.34 5 -3.68 5 -3 5 C-2.67 4.01 -2.34 3.02 -2 2 C-1.34 2 -0.68 2 0 2 C0 1.34 0 0.68 0 0 Z " fill="#8E4B8F" transform="translate(283,325)"/>
<path d="M0 0 C0.33 0 0.66 0 1 0 C0.88637738 1.4800841 0.75877092 2.95910074 0.625 4.4375 C0.55539063 5.26121094 0.48578125 6.08492188 0.4140625 6.93359375 C0.27742187 7.61550781 0.14078125 8.29742187 0 9 C-0.99 9.495 -0.99 9.495 -2 10 C-2 10.99 -2 11.98 -2 13 C-1.01 12.67 -0.02 12.34 1 12 C1.33 11.34 1.66 10.68 2 10 C2.99 10.33 3.98 10.66 5 11 C3.53181332 14.10742423 1.79975 16.90471739 -0.125 19.75 C-0.66382813 20.54921875 -1.20265625 21.3484375 -1.7578125 22.171875 C-2.16773438 22.77515625 -2.57765625 23.3784375 -3 24 C-3.33 23.34 -3.66 22.68 -4 22 C-5.64363134 21.27840576 -7.31050386 20.60648579 -9 20 C-6.86233829 12.755702 -3.77315981 6.53281715 0 0 Z " fill="#7E3686" transform="translate(241,356)"/>
<path d="M0 0 C2 1 2 1 2.7734375 2.92578125 C3.37835141 5.32579681 3.87885312 7.52514229 4 10 C2.125 12.5625 2.125 12.5625 0 14 C-0.66 13.67 -1.32 13.34 -2 13 C-1.67 12.67 -1.34 12.34 -1 12 C-1.66 11.67 -2.32 11.34 -3 11 C-3 11.66 -3 12.32 -3 13 C-5.3125 14.125 -5.3125 14.125 -8 15 C-8.99 14.34 -9.98 13.68 -11 13 C-9.68 11.35 -8.36 9.7 -7 8 C-7.66 7.34 -8.32 6.68 -9 6 C-6.03 4.02 -3.06 2.04 0 0 Z " fill="#B9138E" transform="translate(319,278)"/>
<path d="M0 0 C-1 3 -1 3 -2.70239258 3.87548828 C-3.78750122 4.21942627 -3.78750122 4.21942627 -4.89453125 4.5703125 C-5.68537109 4.82683594 -6.47621094 5.08335937 -7.29101562 5.34765625 C-8.12310547 5.60417969 -8.95519531 5.86070312 -9.8125 6.125 C-10.63298828 6.38925781 -11.45347656 6.65351563 -12.29882812 6.92578125 C-22.83268067 10.29182983 -22.83268067 10.29182983 -28 9 C-27.34 8.34 -26.68 7.68 -26 7 C-26.33 6.34 -26.66 5.68 -27 5 C-7.95874384 -0.33866995 -7.95874384 -0.33866995 0 0 Z " fill="#CA4198" transform="translate(385,270)"/>
<path d="M0 0 C0.61875 0.639375 1.2375 1.27875 1.875 1.9375 C3.82597612 4.03883584 3.82597612 4.03883584 6 5 C6 5.66 6 6.32 6 7 C6.61746094 7.18175781 7.23492187 7.36351562 7.87109375 7.55078125 C10.58421822 8.3560465 13.29278546 9.17508698 16 10 C16.86882812 10.26296875 17.73765625 10.5259375 18.6328125 10.796875 C19.43460938 11.04953125 20.23640625 11.3021875 21.0625 11.5625 C21.79597656 11.79066406 22.52945313 12.01882813 23.28515625 12.25390625 C25 13 25 13 26 15 C26.99 15.33 27.98 15.66 29 16 C22.16986984 18.07760613 15.29055329 14.72466377 9 12 C3.32535898 8.97037596 -1.55821381 5.66642825 -6 1 C-3.03 1.495 -3.03 1.495 0 2 C0 1.34 0 0.68 0 0 Z " fill="#8D5699" transform="translate(150,317)"/>
<path d="M0 0 C0.33 0 0.66 0 1 0 C1.33 1.65 1.66 3.3 2 5 C2.99 4.01 3.98 3.02 5 2 C5 4.97 5 7.94 5 11 C3.68 11.33 2.36 11.66 1 12 C0.82966618 14.47896547 0.66289817 16.9580415 0.5 19.4375 C0.45157959 20.16727051 0.40315918 20.89704102 0.35327148 21.64892578 C0.1063085 25.5715865 -0.03435728 29.44259455 0.0625 33.375 C0 37 0 37 -2 39 C-4.06074857 25.60513431 -2.32379572 13.22350421 0 0 Z " fill="#AC3C96" transform="translate(225,196)"/>
<path d="M0 0 C0.99 0 1.98 0 3 0 C0.60292686 8.17824952 -3.08858772 15.46651278 -7 23 C-8.65 23 -10.3 23 -12 23 C-12.125 17.25 -12.125 17.25 -11 15 C-10.38125 14.79375 -9.7625 14.5875 -9.125 14.375 C-6.54117456 12.70311295 -6.45702881 11.80510377 -5.5625 8.9375 C-4.859375 6.77734375 -4.859375 6.77734375 -4 5 C-1.3125 4 -1.3125 4 1 4 C0.67 2.68 0.34 1.36 0 0 Z " fill="#A42689" transform="translate(269,266)"/>
<path d="M0 0 C0 1.32 0 2.64 0 4 C0.33 4.66 0.66 5.32 1 6 C1.33 5.01 1.66 4.02 2 3 C3.9375 3.3125 3.9375 3.3125 6 4 C6.33 4.99 6.66 5.98 7 7 C6.34 7 5.68 7 5 7 C5 7.99 5 8.98 5 10 C3.75 11.75 3.75 11.75 2 13 C0 12.75 0 12.75 -2 12 C-2.99 11.67 -3.98 11.34 -5 11 C-5.66 10.34 -6.32 9.68 -7 9 C-4.83333333 0 -4.83333333 0 0 0 Z " fill="#882B89" transform="translate(254,341)"/>
<path d="M0 0 C2 1 2 1 4.4453125 2.796875 C8.88433453 5.78140896 13.87978895 7.42248376 18.875 9.25 C20.33679688 9.79527344 20.33679688 9.79527344 21.828125 10.3515625 C24.21628978 11.24127095 26.60683661 12.12384586 29 13 C25.28613281 15.06201172 25.28613281 15.06201172 22.7109375 14.50390625 C21.55464844 14.03791016 21.55464844 14.03791016 20.375 13.5625 C18.09788817 12.623753 18.09788817 12.623753 16 12 C15.01 12.495 15.01 12.495 14 13 C11.6599583 12.71758117 9.32495277 12.38749213 7 12 C7 10.35 7 8.7 7 7 C4.36 6.01 1.72 5.02 -1 4 C-0.67 2.68 -0.34 1.36 0 0 Z " fill="#89438F" transform="translate(177,307)"/>
<path d="M0 0 C0.66 1.32 1.32 2.64 2 4 C1.01 4.33 0.02 4.66 -1 5 C-1 5.99 -1 6.98 -1 8 C-1.66 8 -2.32 8 -3 8 C-2.67 9.32 -2.34 10.64 -2 12 C-2.928125 12.12375 -2.928125 12.12375 -3.875 12.25 C-6.15042479 12.79923543 -6.15042479 12.79923543 -7.125 14.875 C-7.558125 15.926875 -7.558125 15.926875 -8 17 C-10.40436026 20.60654039 -11.94679607 20.85452932 -16 22 C-12.24381549 13.81688375 -5.94285322 6.68570987 0 0 Z " fill="#944390" transform="translate(266,321)"/>
<path d="M0 0 C0.66 0.33 1.32 0.66 2 1 C0.41450777 5.75647668 0.41450777 5.75647668 -1 8 C-4.1875 9.4375 -4.1875 9.4375 -7 10 C-7.0825 11.03125 -7.165 12.0625 -7.25 13.125 C-8.0720882 17.3724557 -9.20107964 19.72126472 -12 23 C-13.32 23 -14.64 23 -16 23 C-16.33 23.99 -16.66 24.98 -17 26 C-17.66 26 -18.32 26 -19 26 C-17.52769684 21.68711193 -15.23423235 18.28218566 -12.5 14.6875 C-12.09652344 14.13771484 -11.69304687 13.58792969 -11.27734375 13.02148438 C-10.23731309 11.63992549 -9.12366546 10.31443702 -8 9 C-7.34 9 -6.68 9 -6 9 C-5.7525 8.443125 -5.505 7.88625 -5.25 7.3125 C-3.78393985 4.60028873 -1.97010529 2.36412635 0 0 Z " fill="#C43391" transform="translate(276,99)"/>
<path d="M0 0 C13.86 0.33 27.72 0.66 42 1 C42 1.66 42 2.32 42 3 C36.98292465 3.04961356 31.96599365 3.08582043 26.94873047 3.10986328 C25.24362702 3.1198914 23.53854064 3.13351726 21.83349609 3.15087891 C19.37593358 3.17526803 16.91859939 3.18651512 14.4609375 3.1953125 C13.70444916 3.20563507 12.94796082 3.21595764 12.16854858 3.22659302 C7.72177057 3.22752561 4.13089783 2.65121642 0 1 C0 0.67 0 0.34 0 0 Z " fill="#8F5097" transform="translate(145,286)"/>
<path d="M0 0 C0.66 0.33 1.32 0.66 2 1 C-0.05787803 3.66313628 -1.26599702 4.07337849 -4.625 5 C-5.73875 5.33 -6.8525 5.66 -8 6 C-8.33 6.99 -8.66 7.98 -9 9 C-9.66 8.67 -10.32 8.34 -11 8 C-11.33 8.99 -11.66 9.98 -12 11 C-14.97 10.67 -17.94 10.34 -21 10 C-21 8.35 -21 6.7 -21 5 C-15.25 3.875 -15.25 3.875 -13 5 C-10.80713576 4.23826821 -8.64338973 3.39149838 -6.5 2.5 C-4.35661027 1.60850162 -2.19286424 0.76173179 0 0 Z M-18 6 C-18.33 6.66 -18.66 7.32 -19 8 C-18.01 7.67 -17.02 7.34 -16 7 C-16.66 6.67 -17.32 6.34 -18 6 Z " fill="#B42C8F" transform="translate(344,279)"/>
<path d="M0 0 C4.82157793 2.05441147 7.45222603 5.50392828 10 10 C10.375 13.5 10.375 13.5 10 16 C8.68 16 7.36 16 6 16 C5.67 14.02 5.34 12.04 5 10 C2.03 9.505 2.03 9.505 -1 9 C-1.33 8.01 -1.66 7.02 -2 6 C-1.34 6 -0.68 6 0 6 C-0.2784375 4.7934375 -0.2784375 4.7934375 -0.5625 3.5625 C-0.706875 2.716875 -0.85125 1.87125 -1 1 C-0.67 0.67 -0.34 0.34 0 0 Z " fill="#DC0883" transform="translate(291,103)"/>
<path d="M0 0 C2.05078125 0.03255208 4.1015625 0.06510417 6.15234375 0.09765625 C4.84231449 4.02774403 3.48527013 6.57544169 0.15234375 9.09765625 C-3.59765625 9.84765625 -3.59765625 9.84765625 -6.84765625 10.09765625 C-7.17765625 9.10765625 -7.50765625 8.11765625 -7.84765625 7.09765625 C-6.52765625 6.76765625 -5.20765625 6.43765625 -3.84765625 6.09765625 C-3.70328125 5.29328125 -3.55890625 4.48890625 -3.41015625 3.66015625 C-2.63730567 0.13939248 -2.63730567 0.13939248 0 0 Z " fill="#9A368C" transform="translate(243.84765625,304.90234375)"/>
<path d="M0 0 C0.99 0.33 1.98 0.66 3 1 C3 1.66 3 2.32 3 3 C3.33 3.66 3.66 4.32 4 5 C3.01 5 2.02 5 1 5 C1 5.99 1 6.98 1 8 C1.99 8 2.98 8 4 8 C3.67 8.99 3.34 9.98 3 11 C2.01 11 1.02 11 0 11 C0 11.99 0 12.98 0 14 C-1.32 13.67 -2.64 13.34 -4 13 C-4 9.37 -4 5.74 -4 2 C-2.68 2 -1.36 2 0 2 C0 1.34 0 0.68 0 0 Z " fill="#B2178D" transform="translate(316,289)"/>
<path d="M0 0 C0.33 0 0.66 0 1 0 C2.14366797 5.19049308 2.14366797 5.19049308 2 8 C1.21625 8.721875 0.4325 9.44375 -0.375 10.1875 C-4.60082381 14.71516836 -3.79609559 20.03052259 -4 26 C-4.16779672 27.77280885 -4.35232346 29.54421474 -4.5625 31.3125 C-4.706875 32.529375 -4.85125 33.74625 -5 35 C-5.66 35 -6.32 35 -7 35 C-6.91879294 31.60321197 -6.80597981 28.20817618 -6.6875 24.8125 C-6.66494141 23.85279297 -6.64238281 22.89308594 -6.61914062 21.90429688 C-6.37565532 15.50727388 -5.65429121 11.65429121 -1 7 C-0.59952556 4.67724823 -0.2602896 2.34260643 0 0 Z " fill="#BF4D9C" transform="translate(291,183)"/>
<path d="M0 0 C0.33 0.99 0.66 1.98 1 3 C2.32 3 3.64 3 5 3 C3.3341708 9.16356805 0.12194714 14.48259656 -3 20 C-3.66 20 -4.32 20 -5 20 C-4.45484328 12.91296261 -2.39081395 6.67203894 0 0 Z " fill="#87658D" transform="translate(227,385)"/>
<path d="M0 0 C3.21462343 1.65601813 4.87387056 4.20512267 7.0625 7.0625 C6.0725 7.0625 5.0825 7.0625 4.0625 7.0625 C3.7325 8.0525 3.4025 9.0425 3.0625 10.0625 C1.7425 9.4025 0.4225 8.7425 -0.9375 8.0625 C-1.5975 8.7225 -2.2575 9.3825 -2.9375 10.0625 C-3.06125 9.093125 -3.185 8.12375 -3.3125 7.125 C-3.51875 6.114375 -3.725 5.10375 -3.9375 4.0625 C-4.5975 3.7325 -5.2575 3.4025 -5.9375 3.0625 C-2.60148929 0.08391901 -2.60148929 0.08391901 0 0 Z " fill="#D6288E" transform="translate(283.9375,93.9375)"/>
<path d="M0 0 C1.32 0 2.64 0 4 0 C4 1.32 4 2.64 4 4 C5.32 4.33 6.64 4.66 8 5 C7.93037367 8.72817347 7.76562117 12.34442851 7 16 C4.4375 18.1875 4.4375 18.1875 2 19 C2 18.01 2 17.02 2 16 C2.66 15.67 3.32 15.34 4 15 C3.75873003 9.26133714 3.75873003 9.26133714 0.9375 4.5 C0.298125 4.005 -0.34125 3.51 -1 3 C-0.67 2.01 -0.34 1.02 0 0 Z " fill="#C61887" transform="translate(288,176)"/>
<path d="M0 0 C3.23781292 1.61890646 4.0634297 5.01682706 5.5 8.1875 C5.96212891 9.1784668 5.96212891 9.1784668 6.43359375 10.18945312 C8.21491307 14.06172024 9.73176588 17.92262732 11 22 C10.01 22.33 9.02 22.66 8 23 C7.773125 21.948125 7.54625 20.89625 7.3125 19.8125 C6.45261601 16.67828516 6.02357093 16.02069643 3.4375 13.75 C-0.208762 9.63626851 0.10276285 5.33432613 0 0 Z " fill="#D1318D" transform="translate(312,132)"/>
<path d="M0 0 C0.66 0 1.32 0 2 0 C1.65954675 8.49430869 -0.25658428 15.973914 -3 24 C-5 21 -5 21 -5 17 C-4.34 17 -3.68 17 -3 17 C-3.061875 16.05125 -3.12375 15.1025 -3.1875 14.125 C-3.21810541 9.15672169 -1.57575543 4.6616098 0 0 Z " fill="#C83D93" transform="translate(328,211)"/>
<path d="M0 0 C0.33 1.32 0.66 2.64 1 4 C0.01 4 -0.98 4 -2 4 C-2 5.32 -2 6.64 -2 8 C-3.98 8.33 -5.96 8.66 -8 9 C-8.33 9.99 -8.66 10.98 -9 12 C-9.66 9.36 -10.32 6.72 -11 4 C-9.5437455 3.32880451 -8.08492133 2.66318193 -6.625 2 C-5.81289063 1.62875 -5.00078125 1.2575 -4.1640625 0.875 C-2 0 -2 0 0 0 Z " fill="#B41184" transform="translate(331,275)"/>
<path d="M0 0 C-0.33 0.66 -0.66 1.32 -1 2 C-0.01 2.66 0.98 3.32 2 4 C0 6 0 6 -3.375 6.1875 C-7 6 -7 6 -9.1875 5.4375 C-11.41518561 4.89978278 -12.84457475 5.30718474 -15 6 C-14.375 4.125 -14.375 4.125 -13 2 C-8.62325105 -0.03569718 -4.77949439 -0.19117978 0 0 Z " fill="#B62486" transform="translate(360,276)"/>
<path d="M0 0 C7.59 0 15.18 0 23 0 C22 3 22 3 19.56640625 4.38671875 C18.07947266 5.03060547 18.07947266 5.03060547 16.5625 5.6875 C15.07943359 6.34298828 15.07943359 6.34298828 13.56640625 7.01171875 C11 8 11 8 9 8 C9 7.01 9 6.02 9 5 C10.98 4.67 12.96 4.34 15 4 C15 3.34 15 2.68 15 2 C16.32 1.67 17.64 1.34 19 1 C12.73 1 6.46 1 0 1 C0 0.67 0 0.34 0 0 Z " fill="#AF7BAD" transform="translate(215,321)"/>
<path d="M0 0 C-1.14807851 3.44423553 -1.59858872 3.67318434 -4.6875 5.25 C-8.46748698 7.04804786 -10.90745621 7.22776314 -15 6 C-15 6.66 -15 7.32 -15 8 C-15.99 7.67 -16.98 7.34 -18 7 C-17.34 7 -16.68 7 -16 7 C-15.67 6.01 -15.34 5.02 -15 4 C-12.12890625 2.83203125 -12.12890625 2.83203125 -8.5625 1.8125 C-7.38816406 1.46832031 -6.21382813 1.12414062 -5.00390625 0.76953125 C-2 0 -2 0 0 0 Z " fill="#AC4687" transform="translate(371,258)"/>
<path d="M0 0 C1.59330455 3.1866091 -0.00158523 5.71110429 -1 9 C-1 9.66 -1 10.32 -1 11 C-2.32 11.33 -3.64 11.66 -5 12 C-5 12.66 -5 13.32 -5 14 C-5.66 14 -6.32 14 -7 14 C-7 14.66 -7 15.32 -7 16 C-7.66 16 -8.32 16 -9 16 C-9.33 17.65 -9.66 19.3 -10 21 C-10.66 21 -11.32 21 -12 21 C-10.57298364 15.92356475 -8.32425022 12.02446597 -5.4375 7.6875 C-5.02564453 7.05521484 -4.61378906 6.42292969 -4.18945312 5.77148438 C-1.18752426 1.18752426 -1.18752426 1.18752426 0 0 Z " fill="#BE4C98" transform="translate(256,125)"/>
<path d="M0 0 C0.61875 0.639375 1.2375 1.27875 1.875 1.9375 C3.82597612 4.03883584 3.82597612 4.03883584 6 5 C6 5.66 6 6.32 6 7 C8.475 7.99 8.475 7.99 11 9 C11 9.99 11 10.98 11 12 C7.09544063 10.57497833 3.75164038 8.73347873 0.25 6.5 C-0.71421875 5.8915625 -1.6784375 5.283125 -2.671875 4.65625 C-5 3 -5 3 -6 1 C-3.03 1.495 -3.03 1.495 0 2 C0 1.34 0 0.68 0 0 Z " fill="#8C5798" transform="translate(150,317)"/>
<path d="M0 0 C0.33 0 0.66 0 1 0 C1.66 3.96 2.32 7.92 3 12 C2.01 11.67 1.02 11.34 0 11 C-0.33 11.99 -0.66 12.98 -1 14 C-3.0625 14.6875 -3.0625 14.6875 -5 15 C-4.67 13.35 -4.34 11.7 -4 10 C-3.34 10 -2.68 10 -2 10 C-1.93941406 9.36191406 -1.87882813 8.72382813 -1.81640625 8.06640625 C-1.73261719 7.24011719 -1.64882812 6.41382813 -1.5625 5.5625 C-1.48128906 4.73878906 -1.40007812 3.91507812 -1.31640625 3.06640625 C-1 1 -1 1 0 0 Z " fill="#7C2884" transform="translate(243,355)"/>
<path d="M0 0 C0.99 0 1.98 0 3 0 C1.00386732 6.7186905 -1.7291421 12.80734808 -5 19 C-5.33 19 -5.66 19 -6 19 C-6.042721 17.33388095 -6.04063832 15.66617115 -6 14 C-5.67 13.67 -5.34 13.34 -5 13 C-4.76924918 11.65252916 -4.58846937 10.29622435 -4.4375 8.9375 C-4.293125 7.638125 -4.14875 6.33875 -4 5 C-2.35 4.67 -0.7 4.34 1 4 C0.67 2.68 0.34 1.36 0 0 Z " fill="#A9428D" transform="translate(269,266)"/>
<path d="M0 0 C0.763125 0.20625 1.52625 0.4125 2.3125 0.625 C1.41077532 1.80325358 0.49048498 2.96731577 -0.4375 4.125 C-0.94796875 4.7746875 -1.4584375 5.424375 -1.984375 6.09375 C-3.6875 7.625 -3.6875 7.625 -7.6875 7.625 C-7.6875 8.285 -7.6875 8.945 -7.6875 9.625 C-8.3475 9.295 -9.0075 8.965 -9.6875 8.625 C-4.703125 -0.65625 -4.703125 -0.65625 0 0 Z " fill="#AA2588" transform="translate(310.6875,285.375)"/>
<path d="M0 0 C0.33 0 0.66 0 1 0 C1.39271781 3.12304165 1.76113726 6.24847572 2.125 9.375 C2.23714844 10.26445312 2.34929687 11.15390625 2.46484375 12.0703125 C2.56152344 12.92109375 2.65820312 13.771875 2.7578125 14.6484375 C2.8520752 15.43395996 2.94633789 16.21948242 3.04345703 17.02880859 C3 19 3 19 1 21 C0.53993654 23.20250992 0.53993654 23.20250992 0.375 25.625 C0.30023438 26.44226563 0.22546875 27.25953125 0.1484375 28.1015625 C0.07496094 29.04128906 0.07496094 29.04128906 0 30 C-0.33 30 -0.66 30 -1 30 C-1.14141393 19.94389808 -0.72904559 10.02437685 0 0 Z " fill="#A7157A" transform="translate(289,205)"/>
<path d="M0 0 C0 0.66 0 1.32 0 2 C-2.22481229 2.70146314 -4.45507368 3.38565954 -6.6875 4.0625 C-7.92886719 4.44535156 -9.17023438 4.82820313 -10.44921875 5.22265625 C-13.8531786 5.96785758 -15.71559076 5.99851065 -19 5 C-12.98488509 1.76109197 -6.82223376 0 0 0 Z " fill="#914992" transform="translate(222,328)"/>
<path d="M0 0 C0.33 1.32 0.66 2.64 1 4 C2.65 4 4.3 4 6 4 C3.42215154 6.64752004 1.08351902 8.94432065 -2 11 C-2.99 11 -3.98 11 -5 11 C-3.77472971 6.94718288 -2.30119506 3.55639236 0 0 Z " fill="#9F5B96" transform="translate(262,303)"/>
<path d="M0 0 C1.32 0.66 2.64 1.32 4 2 C2.40112446 3.48488441 0.79571095 4.96273145 -0.8125 6.4375 C-2.15248047 7.67306641 -2.15248047 7.67306641 -3.51953125 8.93359375 C-6 11 -6 11 -9 12 C-9.33 10.68 -9.66 9.36 -10 8 C-9.360625 7.87625 -8.72125 7.7525 -8.0625 7.625 C-7.381875 7.41875 -6.70125 7.2125 -6 7 C-5.67 6.34 -5.34 5.68 -5 5 C-4.34 5 -3.68 5 -3 5 C-2.67 4.01 -2.34 3.02 -2 2 C-1.34 2 -0.68 2 0 2 C0 1.34 0 0.68 0 0 Z " fill="#9B4A95" transform="translate(283,325)"/>
<path d="M0 0 C4.75 0.75 4.75 0.75 7 3 C6.34 3 5.68 3 5 3 C5.16757813 3.62648438 5.33515625 4.25296875 5.5078125 4.8984375 C5.71148437 5.71570313 5.91515625 6.53296875 6.125 7.375 C6.33382812 8.18710937 6.54265625 8.99921875 6.7578125 9.8359375 C6.83773437 10.55007813 6.91765625 11.26421875 7 12 C6.34 12.66 5.68 13.32 5 14 C4.16235732 12.04350603 3.33000941 10.08474444 2.5 8.125 C2.0359375 7.03445313 1.571875 5.94390625 1.09375 4.8203125 C0 2 0 2 0 0 Z " fill="#946BA1" transform="translate(113,272)"/>
<path d="M0 0 C-0.33 0.99 -0.66 1.98 -1 3 C-5.03986786 4.83630357 -7.761481 5.33847968 -12 4 C-13.34008577 3.34701275 -14.67458806 2.68227957 -16 2 C-10.54538831 0.61470179 -5.63281599 -0.2396943 0 0 Z " fill="#B66F9D" transform="translate(385,270)"/>
<path d="M0 0 C0.66 0.33 1.32 0.66 2 1 C0.44298069 5.67105792 -2.08447373 9.08705685 -5 13 C-5.66 12.67 -6.32 12.34 -7 12 C-6.09205503 7.09709716 -3.67433193 3.32439556 0 0 Z " fill="#A14C92" transform="translate(257,291)"/>
<path d="M0 0 C2.31 0 4.62 0 7 0 C4.16667533 3.04516202 1.34499689 5.16868601 -2.25 7.25 C-3.58804687 8.03117187 -3.58804687 8.03117187 -4.953125 8.828125 C-5.96632813 9.40820312 -5.96632813 9.40820312 -7 10 C-7 9.01 -7 8.02 -7 7 C-6.01 7 -5.02 7 -4 7 C-3.67 5.68 -3.34 4.36 -3 3 C-2.01 3 -1.02 3 0 3 C0 2.01 0 1.02 0 0 Z " fill="#B6599F" transform="translate(316,300)"/>
<path d="M0 0 C13.365 0.495 13.365 0.495 27 1 C26.67 1.66 26.34 2.32 26 3 C22.04168191 3.02892857 18.08339083 3.04677427 14.125 3.0625 C12.43310547 3.07506836 12.43310547 3.07506836 10.70703125 3.08789062 C9.63066406 3.09111328 8.55429688 3.09433594 7.4453125 3.09765625 C6.45031738 3.10289307 5.45532227 3.10812988 4.43017578 3.11352539 C2 3 2 3 0 2 C0 1.34 0 0.68 0 0 Z " fill="#732675" transform="translate(207,321)"/>
<path d="M0 0 C3.6875 1.375 3.6875 1.375 7 3 C6.360625 3.28875 5.72125 3.5775 5.0625 3.875 C2.84793921 4.82823451 2.84793921 4.82823451 2 7 C0.35636866 7.72159424 -1.31050386 8.39351421 -3 9 C-3.1875 5.625 -3.1875 5.625 -3 2 C-2.01 1.34 -1.02 0.68 0 0 Z " fill="#C82794" transform="translate(276,176)"/>
<path d="M0 0 C2.34574075 3.51861113 3.60389398 6.77486909 4 11 C2.625 13 2.625 13 1 14 C0.566875 12.6078125 0.566875 12.6078125 0.125 11.1875 C-0.8875 7.90208333 -0.8875 7.90208333 -3 5 C-2 2 -2 2 0 0 Z " fill="#D32D8C" transform="translate(323,155)"/>
<path d="M0 0 C1.4606285 2.64738916 2 3.89448334 2 7 C1.34 7 0.68 7 0 7 C0 9.31 0 11.62 0 14 C-0.66 14 -1.32 14 -2 14 C-2 14.66 -2 15.32 -2 16 C-2.99 16.33 -3.98 16.66 -5 17 C-4.80664062 16.35933594 -4.61328125 15.71867187 -4.4140625 15.05859375 C-2.9059252 10.04889015 -1.42282214 5.03460143 0 0 Z " fill="#B9539A" transform="translate(281,258)"/>
<path d="M0 0 C-3.88026891 4.24404412 -8.04254346 7.10917547 -13 10 C-13 9.01 -13 8.02 -13 7 C-12.34 7 -11.68 7 -11 7 C-11 6.34 -11 5.68 -11 5 C-7.68716679 1.2139049 -5.05026426 -0.27298726 0 0 Z " fill="#A54991" transform="translate(309,309)"/>
<path d="M0 0 C0.99 0.33 1.98 0.66 3 1 C2.01 1.495 2.01 1.495 1 2 C1 2.66 1 3.32 1 4 C-0.96875 5.7265625 -0.96875 5.7265625 -3.5 7.625 C-4.75296875 8.57246094 -4.75296875 8.57246094 -6.03125 9.5390625 C-6.6809375 10.02117187 -7.330625 10.50328125 -8 11 C-8.66 10.67 -9.32 10.34 -10 10 C-9.67 9.01 -9.34 8.02 -9 7 C-7.68 7 -6.36 7 -5 7 C-4.67 5.68 -4.34 4.36 -4 3 C-2.68 2.67 -1.36 2.34 0 2 C0 1.34 0 0.68 0 0 Z " fill="#AA5096" transform="translate(281,293)"/>
<path d="M0 0 C0.66 0 1.32 0 2 0 C3.63711505 12.89228103 3.63711505 12.89228103 3 18 C2.34 18.66 1.68 19.32 1 20 C-0.03026944 13.30324864 -0.10152799 6.7685324 0 0 Z " fill="#9E3A8E" transform="translate(222,215)"/>
<path d="M0 0 C0.66 0.33 1.32 0.66 2 1 C1.34 2.32 0.68 3.64 0 5 C-1.32 5 -2.64 5 -4 5 C-4 5.99 -4 6.98 -4 8 C-5.96466413 9.06775224 -7.96855359 10.06553465 -10 11 C-10.66 10.67 -11.32 10.34 -12 10 C-11.01 9.67 -10.02 9.34 -9 9 C-9 8.34 -9 7.68 -9 7 C-7.03125 5.2734375 -7.03125 5.2734375 -4.5 3.375 C-3.24703125 2.42753906 -3.24703125 2.42753906 -1.96875 1.4609375 C-0.99421875 0.73777344 -0.99421875 0.73777344 0 0 Z " fill="#AF589F" transform="translate(296,293)"/>
<path d="M0 0 C1.32 0.99 2.64 1.98 4 3 C2.54550599 4.0055761 1.08627557 5.00430435 -0.375 6 C-1.59316406 6.8353125 -1.59316406 6.8353125 -2.8359375 7.6875 C-5 9 -5 9 -7 9 C-6.67 7.02 -6.34 5.04 -6 3 C-4.02 3 -2.04 3 0 3 C0 2.01 0 1.02 0 0 Z " fill="#B83B98" transform="translate(336,274)"/>
<path d="M0 0 C0.33 0 0.66 0 1 0 C0.65225015 8.13734658 0.65225015 8.13734658 -1.9375 11.5625 C-4 13 -4 13 -6 13 C-4.58707905 8.1725201 -2.57025846 4.2837641 0 0 Z " fill="#905B95" transform="translate(241,356)"/>
<path d="M0 0 C1.9375 0.5625 1.9375 0.5625 4 2 C4.75 5.625 4.75 5.625 5 9 C4.01 9.495 4.01 9.495 3 10 C3 9.34 3 8.68 3 8 C0.525 7.01 0.525 7.01 -2 6 C-1.34 4.02 -0.68 2.04 0 0 Z " fill="#914D9A" transform="translate(234,370)"/>
<path d="M0 0 C0.99 0 1.98 0 3 0 C3 2 3 2 0.5625 4.5 C-0.283125 5.325 -1.12875 6.15 -2 7 C-2.33 7.66 -2.66 8.32 -3 9 C-4.65 9 -6.3 9 -8 9 C-7.04270084 7.87411986 -6.08412105 6.7493285 -5.125 5.625 C-4.59132813 4.99851562 -4.05765625 4.37203125 -3.5078125 3.7265625 C-2.38567993 2.44163349 -1.20628025 1.20628025 0 0 Z " fill="#8D3481" transform="translate(279,308)"/>
<path d="M0 0 C1.65 0.33 3.3 0.66 5 1 C3.125 6.75 3.125 6.75 2 9 C1.01 8.67 0.02 8.34 -1 8 C-0.67 5.36 -0.34 2.72 0 0 Z " fill="#BF2D8C" transform="translate(314,246)"/>
<path d="M0 0 C0.33 0 0.66 0 1 0 C1 5.28 1 10.56 1 16 C0.34 16 -0.32 16 -1 16 C-1.33 16.99 -1.66 17.98 -2 19 C-2.33 17.02 -2.66 15.04 -3 13 C-2.34 13 -1.68 13 -1 13 C-0.67 8.71 -0.34 4.42 0 0 Z " fill="#C80D80" transform="translate(329,195)"/>
<path d="M0 0 C1.04327633 3.33532281 1.03074612 6.15310627 0.75 9.625 C0.68296875 10.58664063 0.6159375 11.54828125 0.546875 12.5390625 C0 15 0 15 -3 17 C-3.40214229 10.83381819 -1.96818336 5.82254243 0 0 Z " fill="#B04F98" transform="translate(230,178)"/>
<path d="M0 0 C3.26008643 3.16952847 6.22237877 6.39937989 9 10 C8.34 11.32 7.68 12.64 7 14 C6.67 12.02 6.34 10.04 6 8 C5.38125 7.896875 4.7625 7.79375 4.125 7.6875 C2 7 2 7 0 4 C0 2.68 0 1.36 0 0 Z " fill="#D04D9A" transform="translate(292,103)"/>
<path d="M0 0 C-0.33 0.66 -0.66 1.32 -1 2 C-0.01 2 0.98 2 2 2 C2 2.66 2 3.32 2 4 C-1.28696233 4.79953138 -2.71023192 5.09658936 -6 4 C-6 2.68 -6 1.36 -6 0 C-3.50907189 -1.24546405 -2.58919267 -0.7767578 0 0 Z " fill="#AB188E" transform="translate(274,296)"/>
<path d="M0 0 C0 0.66 0 1.32 0 2 C-3.71973879 4.84450614 -6.37390802 5.3227506 -11 5 C-7.49434208 1.32740599 -5.1720171 -0.27956849 0 0 Z " fill="#AE358E" transform="translate(330,295)"/>
<path d="M0 0 C-3.41016497 2.86453858 -6.90694544 4.34703566 -11 6 C-11 4.68 -11 3.36 -11 2 C-7.36576791 -0.32590854 -4.22911669 -0.16265833 0 0 Z " fill="#BF499D" transform="translate(347,287)"/>
<path d="M0 0 C1.32 0.33 2.64 0.66 4 1 C1.03 3.97 -1.94 6.94 -5 10 C-5.33 8.68 -5.66 7.36 -6 6 C-5.38125 5.938125 -4.7625 5.87625 -4.125 5.8125 C-1.72238859 5.171081 -1.72238859 5.171081 -0.75 2.4375 C-0.5025 1.633125 -0.255 0.82875 0 0 Z " fill="#B55CA0" transform="translate(290,284)"/>
<path d="M0 0 C0.66 0.33 1.32 0.66 2 1 C0.41450777 5.75647668 0.41450777 5.75647668 -1 8 C-4.1875 9.4375 -4.1875 9.4375 -7 10 C-7 10.66 -7 11.32 -7 12 C-7.66 11.67 -8.32 11.34 -9 11 C-8.67 10.34 -8.34 9.68 -8 9 C-7.34 9 -6.68 9 -6 9 C-5.7525 8.443125 -5.505 7.88625 -5.25 7.3125 C-3.78393985 4.60028873 -1.97010529 2.36412635 0 0 Z " fill="#CA4A96" transform="translate(276,99)"/>
<path d="M0 0 C0.33 0.99 0.66 1.98 1 3 C-3.29 3 -7.58 3 -12 3 C-7.58119757 0.05413171 -5.32232661 -0.0985616 0 0 Z " fill="#AF2D7C" transform="translate(373,273)"/>
<path d="M0 0 C-9.20696864 6.13797909 -9.20696864 6.13797909 -12.22265625 5.61328125 C-12.80917969 5.41089844 -13.39570313 5.20851563 -14 5 C-12.23628182 3.96692229 -10.46374967 2.94887951 -8.6875 1.9375 C-7.70136719 1.36902344 -6.71523438 0.80054688 -5.69921875 0.21484375 C-3 -1 -3 -1 0 0 Z " fill="#B44F9A" transform="translate(336,272)"/>
<path d="M0 0 C2.11386464 2.11386464 2.97008322 3.79267603 4.1875 6.5 C4.55230469 7.2940625 4.91710937 8.088125 5.29296875 8.90625 C5.52628906 9.5971875 5.75960938 10.288125 6 11 C5 13 5 13 3 14 C2.566875 12.2984375 2.566875 12.2984375 2.125 10.5625 C1.75375 9.386875 1.3825 8.21125 1 7 C0.34 6.67 -0.32 6.34 -1 6 C-0.67 4.02 -0.34 2.04 0 0 Z " fill="#C94B93" transform="translate(317,141)"/>
<path d="M0 0 C0.99 0 1.98 0 3 0 C2.67 2.31 2.34 4.62 2 7 C0.68 7 -0.64 7 -2 7 C-1.125 1.125 -1.125 1.125 0 0 Z " fill="#75367F" transform="translate(230,381)"/>
<path d="M0 0 C1.32 0 2.64 0 4 0 C2.50902342 3.7952131 0.24299151 5.61042731 -3 8 C-3.33 7.01 -3.66 6.02 -4 5 C-3.34 5 -2.68 5 -2 5 C-1.34 3.35 -0.68 1.7 0 0 Z " fill="#8C3F8C" transform="translate(270,336)"/>
<path d="M0 0 C-0.66 1.32 -1.32 2.64 -2 4 C-2.66 4 -3.32 4 -4 4 C-4.66 4.66 -5.32 5.32 -6 6 C-6.66 5.34 -7.32 4.68 -8 4 C-7.8125 1.9375 -7.8125 1.9375 -7 0 C-3.86650268 -1.04449911 -3.01031744 -0.93423645 0 0 Z " fill="#92409E" transform="translate(176,306)"/>
<path d="M0 0 C2.475 0.495 2.475 0.495 5 1 C5 4 5 4 4 6 C2.69084721 7.03145371 1.35917857 8.03542166 0 9 C0 6.03 0 3.06 0 0 Z " fill="#A42686" transform="translate(226,193)"/>
<path d="M0 0 C2 4 2 4 2 8 C0.02 8.66 -1.96 9.32 -4 10 C-2.68 6.7 -1.36 3.4 0 0 Z " fill="#BC4695" transform="translate(243,146)"/>
<path d="M0 0 C0.66 0.33 1.32 0.66 2 1 C2 1.99 2 2.98 2 4 C1.34 4 0.68 4 0 4 C0 4.99 0 5.98 0 7 C-2.97 6.505 -2.97 6.505 -6 6 C-6 5.34 -6 4.68 -6 4 C-4.7934375 3.566875 -4.7934375 3.566875 -3.5625 3.125 C-0.8673532 2.26737432 -0.8673532 2.26737432 0 0 Z " fill="#732C87" transform="translate(150,312)"/>
<path d="M0 0 C1.32 0 2.64 0 4 0 C2.73058503 3.91402949 1.48832306 5.79072873 -2 8 C-2 6 -2 4 -2 2 C-1.34 2 -0.68 2 0 2 C0 1.34 0 0.68 0 0 Z " fill="#A55399" transform="translate(246,305)"/>
<path d="M0 0 C2.64 0 5.28 0 8 0 C8.33 0.99 8.66 1.98 9 3 C5.7 3 2.4 3 -1 3 C-0.67 2.01 -0.34 1.02 0 0 Z " fill="#793788" transform="translate(135,284)"/>
<path d="M0 0 C0.66 0.33 1.32 0.66 2 1 C-0.75520215 3.95929119 -3.46627288 6.03681826 -7 8 C-7.66 7.34 -8.32 6.68 -9 6 C-6.03 4.02 -3.06 2.04 0 0 Z " fill="#BD62A8" transform="translate(319,278)"/>
<path d="M0 0 C-3.0684847 2.97550031 -4.46236331 3.96474513 -8.8125 4.25 C-9.864375 4.1675 -10.91625 4.085 -12 4 C-12 3.34 -12 2.68 -12 2 C-10.37787941 1.47026689 -8.75218416 0.95146893 -7.125 0.4375 C-6.22007812 0.14746094 -5.31515625 -0.14257812 -4.3828125 -0.44140625 C-2 -1 -2 -1 0 0 Z " fill="#A971A4" transform="translate(219,279)"/>
<path d="M0 0 C0.66 0 1.32 0 2 0 C2 1.98 2 3.96 2 6 C0.68 6.33 -0.64 6.66 -2 7 C-2 7.99 -2 8.98 -2 10 C-2.66 9.67 -3.32 9.34 -4 9 C-2.68 6.03 -1.36 3.06 0 0 Z " fill="#AE4E95" transform="translate(275,277)"/>
<path d="M0 0 C0.66 0 1.32 0 2 0 C2.33 1.32 2.66 2.64 3 4 C0.36 5.65 -2.28 7.3 -5 9 C-4 5 -4 5 -1 3 C-0.67 2.01 -0.34 1.02 0 0 Z " fill="#A65196" transform="translate(292,317)"/>
<path d="M0 0 C0.99 0.33 1.98 0.66 3 1 C4.1875 4.5625 4.1875 4.5625 5 8 C4.01 8 3.02 8 2 8 C-0.1519437 4.77208445 -0.20086443 3.71599191 0 0 Z " fill="#875495" transform="translate(123,290)"/>
<path d="M0 0 C0.33 0.33 0.66 0.66 1 1 C1.99 1.33 2.98 1.66 4 2 C3 4 3 4 -0.0625 5.125 C-1.5165625 5.558125 -1.5165625 5.558125 -3 6 C-3 4.68 -3 3.36 -3 2 C-3.99 1.67 -4.98 1.34 -6 1 C-3.92446352 0.4465236 -2.15634036 0 0 0 Z " fill="#C4569E" transform="translate(355,263)"/>
<path d="M0 0 C0.33 1.32 0.66 2.64 1 4 C0.01 4.33 -0.98 4.66 -2 5 C-1.34 3.35 -0.68 1.7 0 0 Z M-3 5 C-1.68 5.66 -0.36 6.32 1 7 C-0.3125 8.5 -0.3125 8.5 -2 10 C-2.99 10 -3.98 10 -5 10 C-4.125 6.125 -4.125 6.125 -3 5 Z " fill="#D6068C" transform="translate(271,110)"/>
<path d="M0 0 C2.83557667 1.41778834 5.372285 3.23031438 8 5 C8.99 5.66 9.98 6.32 11 7 C6.6822542 6.49202991 2.96697886 5.80317221 -1 4 C-0.67 2.68 -0.34 1.36 0 0 Z " fill="#995FA1" transform="translate(177,307)"/>
<path d="M0 0 C3.63 0 7.26 0 11 0 C11.33 1.32 11.66 2.64 12 4 C10.7315625 3.7834375 10.7315625 3.7834375 9.4375 3.5625 C5.96406851 2.9941203 2.48554338 2.48797607 -1 2 C-0.67 1.34 -0.34 0.68 0 0 Z " fill="#7B2982" transform="translate(170,304)"/>
<path d="M0 0 C0.33 0.66 0.66 1.32 1 2 C-3.96073422 3.32286246 -8.91111512 3.08893197 -14 3 C-14 2.67 -14 2.34 -14 2 C-4.58997722 -0.29612756 -4.58997722 -0.29612756 0 0 Z " fill="#A96BA8" transform="translate(204,283)"/>
<path d="M0 0 C0.33 0.99 0.66 1.98 1 3 C2.32 3 3.64 3 5 3 C4.34 4.98 3.68 6.96 3 9 C1.68 8.01 0.36 7.02 -1 6 C-0.67 4.02 -0.34 2.04 0 0 Z " fill="#966FA1" transform="translate(227,385)"/>
<path d="M0 0 C0 0.99 0 1.98 0 3 C-3.63 2.67 -7.26 2.34 -11 2 C-6.78370866 -0.10814567 -4.60209225 -0.17700355 0 0 Z " fill="#974E9B" transform="translate(207,312)"/>
<path d="M0 0 C0.99 0.33 1.98 0.66 3 1 C3 1.66 3 2.32 3 3 C3.33 3.66 3.66 4.32 4 5 C2.35 5.33 0.7 5.66 -1 6 C-1 5.34 -1 4.68 -1 4 C-1.99 4 -2.98 4 -4 4 C-3.67 3.34 -3.34 2.68 -3 2 C-2.01 2 -1.02 2 0 2 C0 1.34 0 0.68 0 0 Z " fill="#A61581" transform="translate(316,289)"/>
<path d="M0 0 C-1.75864246 2.1793144 -2.69396 2.93686419 -5.48046875 3.51171875 C-6.82044922 3.59873047 -6.82044922 3.59873047 -8.1875 3.6875 C-9.08855469 3.75324219 -9.98960937 3.81898438 -10.91796875 3.88671875 C-11.60503906 3.92410156 -12.29210937 3.96148437 -13 4 C-10.56272708 2.37515139 -8.62713877 1.34310925 -5.9375 0.3125 C-5.24527344 0.04050781 -4.55304688 -0.23148437 -3.83984375 -0.51171875 C-2 -1 -2 -1 0 0 Z " fill="#CD73B3" transform="translate(346,280)"/>
<path d="M0 0 C-1.77444972 2.24606427 -2.58352485 2.95081002 -5.48046875 3.29296875 C-6.37378906 3.25816406 -7.26710938 3.22335937 -8.1875 3.1875 C-9.08855469 3.16042969 -9.98960937 3.13335937 -10.91796875 3.10546875 C-11.94857422 3.05326172 -11.94857422 3.05326172 -13 3 C-8.24109471 0.62054735 -5.45161235 -0.10095578 0 0 Z " fill="#B53D8D" transform="translate(360,276)"/>
<path d="M0 0 C0.33 0.99 0.66 1.98 1 3 C0.4225 3.0825 -0.155 3.165 -0.75 3.25 C-3.6159304 4.20531013 -4.9990764 5.78469173 -7 8 C-7.66 7.67 -8.32 7.34 -9 7 C-8.75390625 5.109375 -8.75390625 5.109375 -8 3 C-6.15234375 1.953125 -6.15234375 1.953125 -3.9375 1.25 C-2.83728516 0.88648438 -2.83728516 0.88648438 -1.71484375 0.515625 C-1.14894531 0.34546875 -0.58304688 0.1753125 0 0 Z " fill="#892682" transform="translate(223,277)"/>
<path d="M0 0 C2.32472205 2.85306797 3.7508258 5.54074837 5 9 C4.01 9.66 3.02 10.32 2 11 C0.80712589 7.12315913 0 4.08378077 0 0 Z " fill="#D24096" transform="translate(307,123)"/>
<path d="M0 0 C0.99 0.33 1.98 0.66 3 1 C2.34 2.32 1.68 3.64 1 5 C0.34 5 -0.32 5 -1 5 C-1.33 5.99 -1.66 6.98 -2 8 C-2.66 6.68 -3.32 5.36 -4 4 C-2.68 2.68 -1.36 1.36 0 0 Z " fill="#89518F" transform="translate(249,359)"/>
<path d="M0 0 C1 3 1 3 0 6 C-0.66 6 -1.32 6 -2 6 C-2 6.66 -2 7.32 -2 8 C-3.98 8.99 -3.98 8.99 -6 10 C-4.34832443 6.4213696 -2.21713508 3.25179812 0 0 Z " fill="#A06AA1" transform="translate(256,333)"/>
<path d="M0 0 C2.64 0.33 5.28 0.66 8 1 C8 1.99 8 2.98 8 4 C5.03 3.67 2.06 3.34 -1 3 C-0.67 2.01 -0.34 1.02 0 0 Z " fill="#7D3A8E" transform="translate(179,331)"/>
<path d="M0 0 C1.32 0.66 2.64 1.32 4 2 C1.03 4.475 1.03 4.475 -2 7 C-2.33 5.68 -2.66 4.36 -3 3 C-2.01 2.67 -1.02 2.34 0 2 C0 1.34 0 0.68 0 0 Z " fill="#A45298" transform="translate(283,325)"/>
<path d="M0 0 C-0.33 1.65 -0.66 3.3 -1 5 C-1.99 4.67 -2.98 4.34 -4 4 C-4 3.34 -4 2.68 -4 2 C-5.32 1.67 -6.64 1.34 -8 1 C-5.07175348 0.02391783 -3.04386724 -0.08226668 0 0 Z " fill="#C54497" transform="translate(352,265)"/>
<path d="M0 0 C0.33 1.32 0.66 2.64 1 4 C1.66 4 2.32 4 3 4 C2.67 4.66 2.34 5.32 2 6 C-0.5625 6.625 -0.5625 6.625 -3 7 C-2.34 6.67 -1.68 6.34 -1 6 C-1 5.34 -1 4.68 -1 4 C-1.66 3.67 -2.32 3.34 -3 3 C-2.01 2.01 -1.02 1.02 0 0 Z " fill="#AB3D97" transform="translate(283,304)"/>
<path d="M0 0 C2.97 0.33 5.94 0.66 9 1 C5 3 5 3 1 5 C0.67 3.35 0.34 1.7 0 0 Z " fill="#91338F" transform="translate(204,282)"/>
<path d="M0 0 C0.33 0 0.66 0 1 0 C1.66 2.97 2.32 5.94 3 9 C2.01 9 1.02 9 0 9 C0 8.01 0 7.02 0 6 C-0.66 6 -1.32 6 -2 6 C-1.34 4.02 -0.68 2.04 0 0 Z " fill="#C20D87" transform="translate(275,184)"/>
<path d="M0 0 C0.3125 2.25 0.3125 2.25 0 5 C-2.5 7.3125 -2.5 7.3125 -5 9 C-5.33 8.34 -5.66 7.68 -6 7 C-5.05332585 4.55442511 -3.08014897 0 0 0 Z " fill="#BB0E80" transform="translate(261,122)"/>
<path d="M0 0 C0.66 0 1.32 0 2 0 C1.5206753 4.31392226 0.2542015 6.16569547 -3 9 C-3 5.30581799 -1.71820705 3.22163822 0 0 Z " fill="#A36C9E" transform="translate(246,347)"/>
<path d="M0 0 C-0.99 0.66 -1.98 1.32 -3 2 C-2.67 2.99 -2.34 3.98 -2 5 C-3.32 4.67 -4.64 4.34 -6 4 C-6 2.68 -6 1.36 -6 0 C-3 -1 -3 -1 0 0 Z " fill="#BD62A9" transform="translate(329,284)"/>
<path d="M0 0 C3 1 3 1 3.9375 2.8125 C4 5 4 5 2.0625 7.25 C1.381875 7.8275 0.70125 8.405 0 9 C-0.66 8.67 -1.32 8.34 -2 8 C-1.01 6.35 -0.02 4.7 1 3 C0.34 2.34 -0.32 1.68 -1 1 C-0.67 0.67 -0.34 0.34 0 0 Z " fill="#CF4DAF" transform="translate(319,283)"/>
<path d="M0 0 C0.144375 0.61875 0.28875 1.2375 0.4375 1.875 C0.93152225 4.03258322 0.93152225 4.03258322 2 6 C0.68 7.32 -0.64 8.64 -2 10 C-3 8 -3 8 -2.44140625 6.0546875 C-2.15136719 5.33539063 -1.86132812 4.61609375 -1.5625 3.875 C-1.27503906 3.15054688 -0.98757812 2.42609375 -0.69140625 1.6796875 C-0.46324219 1.12539062 -0.23507813 0.57109375 0 0 Z " fill="#B7569B" transform="translate(238,156)"/>
<path d="M0 0 C0.99 0.66 1.98 1.32 3 2 C2.01 3.485 2.01 3.485 1 5 C0.34 5 -0.32 5 -1 5 C-1.33 5.99 -1.66 6.98 -2 8 C-2.33 7.34 -2.66 6.68 -3 6 C-1.44444444 1.44444444 -1.44444444 1.44444444 0 0 Z " fill="#90238C" transform="translate(267,336)"/>
<path d="M0 0 C-0.33 0.99 -0.66 1.98 -1 3 C-2.65 3 -4.3 3 -6 3 C-6 2.01 -6 1.02 -6 0 C-3.50907189 -1.24546405 -2.58919267 -0.7767578 0 0 Z " fill="#C4138B" transform="translate(337,274)"/>
<path d="M0 0 C-0.33 0.99 -0.66 1.98 -1 3 C-2.8125 3.8125 -2.8125 3.8125 -5 4 C-7.25 3.0625 -7.25 3.0625 -9 2 C-2.25 0 -2.25 0 0 0 Z " fill="#B185A1" transform="translate(371,258)"/>
<path d="M0 0 C0.33 0 0.66 0 1 0 C1.33 2.64 1.66 5.28 2 8 C0.68 8.99 -0.64 9.98 -2 11 C-2.66 10.67 -3.32 10.34 -4 10 C-3.525625 9.649375 -3.05125 9.29875 -2.5625 8.9375 C-0.32126175 6.15836457 -0.32882342 3.4855283 0 0 Z " fill="#CF62A9" transform="translate(291,183)"/>
<path d="M0 0 C0.99 0.33 1.98 0.66 3 1 C1.70700306 3.88437779 0.34058637 5.87219421 -2 8 C-2 6.68 -2 5.36 -2 4 C-1.34 4 -0.68 4 0 4 C0 2.68 0 1.36 0 0 Z " fill="#96619A" transform="translate(243,366)"/>
<path d="M0 0 C2.97 0.99 5.94 1.98 9 3 C5.06329512 4.31223496 2.87511856 3.24296256 -1 2 C-0.67 1.34 -0.34 0.68 0 0 Z " fill="#752D81" transform="translate(161,326)"/>
<path d="M0 0 C0.33 1.32 0.66 2.64 1 4 C-0.65 4.33 -2.3 4.66 -4 5 C-4 3.68 -4 2.36 -4 1 C-2 0 -2 0 0 0 Z " fill="#7E2686" transform="translate(188,314)"/>
<path d="M0 0 C0.66 0.33 1.32 0.66 2 1 C0.92598892 3.91517292 0.22189824 5.77810176 -2 8 C-2.6875 5.6875 -2.6875 5.6875 -3 3 C-1.5625 1.1875 -1.5625 1.1875 0 0 Z " fill="#B05AA0" transform="translate(257,291)"/>
<path d="M0 0 C3.55780196 0.60990891 6.6828589 1.5783681 10 3 C8.375 4.1875 8.375 4.1875 6 5 C2.75 3.625 2.75 3.625 0 2 C0 1.34 0 0.68 0 0 Z " fill="#9972A4" transform="translate(124,278)"/>
<path d="M0 0 C2.31 0 4.62 0 7 0 C2.25 4 2.25 4 0 4 C0 2.68 0 1.36 0 0 Z " fill="#C557A5" transform="translate(340,272)"/>
<path d="M0 0 C1.65 0 3.3 0 5 0 C5 0.99 5 1.98 5 3 C3.35 3.33 1.7 3.66 0 4 C0 2.68 0 1.36 0 0 Z " fill="#CE0787" transform="translate(314,240)"/>
<path d="M0 0 C1.65 0 3.3 0 5 0 C5 0.66 5 1.32 5 2 C6.32 2.33 7.64 2.66 9 3 C6.03 3 3.06 3 0 3 C0 2.01 0 1.02 0 0 Z " fill="#791F7A" transform="translate(207,312)"/>
<path d="M0 0 C2.0625 0.4375 2.0625 0.4375 4 1 C3.67 1.99 3.34 2.98 3 4 C1.35 4.33 -0.3 4.66 -2 5 C-1.125 1.125 -1.125 1.125 0 0 Z " fill="#A01E93" transform="translate(242,305)"/>
<path d="M0 0 C-0.33 0.66 -0.66 1.32 -1 2 C-1.66 2 -2.32 2 -3 2 C-3.33 2.66 -3.66 3.32 -4 4 C-5.32 3.34 -6.64 2.68 -8 2 C-4.77208445 -0.1519437 -3.71599191 -0.20086443 0 0 Z " fill="#A91D84" transform="translate(327,289)"/>
<path d="M0 0 C2.475 0.495 2.475 0.495 5 1 C5 1.99 5 2.98 5 4 C3.35 3.67 1.7 3.34 0 3 C0 2.01 0 1.02 0 0 Z " fill="#763E89" transform="translate(118,275)"/>
<path d="M0 0 C0.99 0 1.98 0 3 0 C2.01 2.97 1.02 5.94 0 9 C-0.33 9 -0.66 9 -1 9 C-1 7.35 -1 5.7 -1 4 C-0.34 4 0.32 4 1 4 C0.67 2.68 0.34 1.36 0 0 Z " fill="#B359A0" transform="translate(269,266)"/>
<path d="M0 0 C0.66 0.33 1.32 0.66 2 1 C1.67 3.97 1.34 6.94 1 10 C0.67 10 0.34 10 0 10 C-1.125 2.25 -1.125 2.25 0 0 Z " fill="#C11185" transform="translate(290,202)"/>
<path d="M0 0 C0.66 0.99 1.32 1.98 2 3 C0.93453047 5.13093906 -0.29159719 6.36587557 -2 8 C-2.6875 5.6875 -2.6875 5.6875 -3 3 C-1.5625 1.1875 -1.5625 1.1875 0 0 Z " fill="#E32D98" transform="translate(323,155)"/>
</svg>
